<svg id="layer1" xmlns="http://www.w3.org/2000/svg" width="53" height="35.333" viewBox="0 0 53 35.333">
  <rect id="rect2160" width="53" height="6.183" transform="translate(0 29.15)" fill="#096"/>
  <rect id="rect3198" width="53" height="6.183" fill="#096"/>
  <rect id="rect3200" width="53" height="1.767" transform="translate(0 6.183)"/>
  <rect id="rect4171" width="53" height="1.767" transform="translate(0 27.383)"/>
  <rect id="rect4173" width="53" height="19.433" transform="translate(0 7.95)" fill="#009"/>
  <path id="path5162" d="M25.617,8.392c-8.833,2.65-8.392,9.275-5.565,15.37l-3.357,3.18,6.095-2.208V16.607a4.241,4.241,0,0,1,7.42,0v8.127l6.1,2.208-3.357-3.18c2.827-6.095,3.268-12.72-5.565-15.37l-.883,3.8Z" fill="#fff"/>
  <path id="path6829" d="M29.857,17.406,27.8,18.993l.782,2.56L26.5,19.981l-2.074,1.57.779-2.559L23.143,17.4l2.557-.009.8-2.552.8,2.554Z" fill="#fff"/>
</svg>
